<mxfile host="app.diagrams.net" modified="2024-06-11T10:42:50.231Z" agent="Mozilla/5.0 (Windows NT 10.0; Win64; x64) AppleWebKit/537.36 (KHTML, like Gecko) Chrome/125.0.0.0 Safari/537.36" etag="ihZTtuQ4zT3rBpWDGK01" version="24.5.2" type="device">
  <diagram name="Page-1" id="7U2hGCDLGD2Dzf8NGq6I">
    <mxGraphModel dx="2614" dy="2118" grid="1" gridSize="10" guides="1" tooltips="1" connect="1" arrows="1" fold="1" page="1" pageScale="1" pageWidth="850" pageHeight="1100" math="0" shadow="0">
      <root>
        <mxCell id="0" />
        <mxCell id="1" parent="0" />
        <mxCell id="Y_fE8vQvsGZrMahcz89O-1" value="" style="rounded=0;whiteSpace=wrap;html=1;" vertex="1" parent="1">
          <mxGeometry x="-700" y="60" width="770" height="300" as="geometry" />
        </mxCell>
        <mxCell id="Y_fE8vQvsGZrMahcz89O-3" value="" style="verticalLabelPosition=bottom;html=1;verticalAlign=top;align=center;strokeColor=none;fillColor=#00BEF2;shape=mxgraph.azure.computer;pointerEvents=1;" vertex="1" parent="1">
          <mxGeometry x="-620" y="75" width="70" height="65" as="geometry" />
        </mxCell>
        <mxCell id="Y_fE8vQvsGZrMahcz89O-4" value="" style="sketch=0;html=1;aspect=fixed;strokeColor=none;shadow=0;fillColor=#3B8DF1;verticalAlign=top;labelPosition=center;verticalLabelPosition=bottom;shape=mxgraph.gcp2.cloud_computer" vertex="1" parent="1">
          <mxGeometry x="-70" y="90" width="79.55" height="70" as="geometry" />
        </mxCell>
        <mxCell id="Y_fE8vQvsGZrMahcz89O-5" value="" style="image;aspect=fixed;perimeter=ellipsePerimeter;html=1;align=center;shadow=0;dashed=0;spacingTop=3;image=img/lib/active_directory/database_server.svg;" vertex="1" parent="1">
          <mxGeometry x="-339.7" y="65" width="69.7" height="85" as="geometry" />
        </mxCell>
        <mxCell id="Y_fE8vQvsGZrMahcz89O-6" value="" style="image;html=1;image=img/lib/clip_art/networking/Switch_128x128.png" vertex="1" parent="1">
          <mxGeometry x="-600" y="200" width="80" height="80" as="geometry" />
        </mxCell>
        <mxCell id="Y_fE8vQvsGZrMahcz89O-7" value="" style="image;html=1;image=img/lib/clip_art/networking/Router_128x128.png" vertex="1" parent="1">
          <mxGeometry x="-344.85" y="220" width="80" height="70" as="geometry" />
        </mxCell>
        <mxCell id="Y_fE8vQvsGZrMahcz89O-8" value="" style="image;html=1;image=img/lib/clip_art/networking/Router_128x128.png" vertex="1" parent="1">
          <mxGeometry x="-70" y="210" width="80" height="80" as="geometry" />
        </mxCell>
        <mxCell id="Y_fE8vQvsGZrMahcz89O-16" value="" style="endArrow=none;html=1;rounded=0;" edge="1" parent="1" source="Y_fE8vQvsGZrMahcz89O-33">
          <mxGeometry width="50" height="50" relative="1" as="geometry">
            <mxPoint x="-310.71" y="210" as="sourcePoint" />
            <mxPoint x="-310.71" y="150" as="targetPoint" />
          </mxGeometry>
        </mxCell>
        <mxCell id="Y_fE8vQvsGZrMahcz89O-18" value="" style="endArrow=none;html=1;rounded=0;" edge="1" parent="1" source="Y_fE8vQvsGZrMahcz89O-37">
          <mxGeometry width="50" height="50" relative="1" as="geometry">
            <mxPoint x="-36.29000000000002" y="230" as="sourcePoint" />
            <mxPoint x="-40" y="160" as="targetPoint" />
          </mxGeometry>
        </mxCell>
        <mxCell id="Y_fE8vQvsGZrMahcz89O-19" value="" style="endArrow=none;html=1;rounded=0;" edge="1" parent="1" source="Y_fE8vQvsGZrMahcz89O-32">
          <mxGeometry width="50" height="50" relative="1" as="geometry">
            <mxPoint x="-583" y="220" as="sourcePoint" />
            <mxPoint x="-586.71" y="150" as="targetPoint" />
            <Array as="points" />
          </mxGeometry>
        </mxCell>
        <mxCell id="Y_fE8vQvsGZrMahcz89O-24" value="" style="rounded=0;whiteSpace=wrap;html=1;" vertex="1" parent="1">
          <mxGeometry x="-680" y="400" width="750" height="305" as="geometry" />
        </mxCell>
        <mxCell id="Y_fE8vQvsGZrMahcz89O-20" value="" style="endArrow=none;dashed=1;html=1;rounded=0;entryX=1;entryY=1;entryDx=0;entryDy=0;" edge="1" parent="1" source="Y_fE8vQvsGZrMahcz89O-35">
          <mxGeometry width="50" height="50" relative="1" as="geometry">
            <mxPoint x="-310" y="440" as="sourcePoint" />
            <mxPoint x="-562.4299999999998" y="250" as="targetPoint" />
          </mxGeometry>
        </mxCell>
        <mxCell id="Y_fE8vQvsGZrMahcz89O-21" value="" style="endArrow=none;dashed=1;html=1;rounded=0;entryX=1;entryY=1;entryDx=0;entryDy=0;" edge="1" parent="1" source="Y_fE8vQvsGZrMahcz89O-34">
          <mxGeometry width="50" height="50" relative="1" as="geometry">
            <mxPoint x="-302.64" y="440" as="sourcePoint" />
            <mxPoint x="-307.0699999999998" y="260" as="targetPoint" />
          </mxGeometry>
        </mxCell>
        <mxCell id="Y_fE8vQvsGZrMahcz89O-22" value="" style="endArrow=none;dashed=1;html=1;rounded=0;entryX=1;entryY=1;entryDx=0;entryDy=0;" edge="1" parent="1" source="Y_fE8vQvsGZrMahcz89O-38">
          <mxGeometry width="50" height="50" relative="1" as="geometry">
            <mxPoint x="-300" y="440" as="sourcePoint" />
            <mxPoint x="-19.99999999999983" y="260" as="targetPoint" />
          </mxGeometry>
        </mxCell>
        <mxCell id="Y_fE8vQvsGZrMahcz89O-25" value="" style="shape=mxgraph.cisco.switches.multilayer_remote_switch;html=1;pointerEvents=1;dashed=0;fillColor=#036897;strokeColor=#ffffff;strokeWidth=2;verticalLabelPosition=bottom;verticalAlign=top;align=center;outlineConnect=0;" vertex="1" parent="1">
          <mxGeometry x="-150.00000000000003" y="430" width="58.85" height="60" as="geometry" />
        </mxCell>
        <mxCell id="Y_fE8vQvsGZrMahcz89O-28" value="&lt;h1&gt;&lt;b&gt;TIER 3 ARCHITECTURE&lt;/b&gt;&lt;/h1&gt;" style="text;html=1;align=center;verticalAlign=middle;whiteSpace=wrap;rounded=0;" vertex="1" parent="1">
          <mxGeometry x="-650" width="680" height="40" as="geometry" />
        </mxCell>
        <mxCell id="Y_fE8vQvsGZrMahcz89O-29" value="Text" style="text;html=1;align=center;verticalAlign=middle;whiteSpace=wrap;rounded=0;" vertex="1" parent="1">
          <mxGeometry x="-680" y="320" width="60" height="30" as="geometry" />
        </mxCell>
        <mxCell id="Y_fE8vQvsGZrMahcz89O-36" value="" style="endArrow=none;dashed=1;html=1;rounded=0;entryX=0.374;entryY=0.825;entryDx=0;entryDy=0;exitX=0.5;exitY=0;exitDx=0;exitDy=0;exitPerimeter=0;entryPerimeter=0;" edge="1" parent="1" source="Y_fE8vQvsGZrMahcz89O-52" target="Y_fE8vQvsGZrMahcz89O-35">
          <mxGeometry width="50" height="50" relative="1" as="geometry">
            <mxPoint x="-310" y="440" as="sourcePoint" />
            <mxPoint x="-562.4299999999998" y="250" as="targetPoint" />
            <Array as="points" />
          </mxGeometry>
        </mxCell>
        <mxCell id="Y_fE8vQvsGZrMahcz89O-35" value="SWITCH" style="text;html=1;align=center;verticalAlign=middle;resizable=0;points=[];autosize=1;strokeColor=none;fillColor=none;" vertex="1" parent="1">
          <mxGeometry x="-570" y="240" width="70" height="30" as="geometry" />
        </mxCell>
        <mxCell id="Y_fE8vQvsGZrMahcz89O-39" value="MULTI-LAYERED SWITCH&lt;br&gt;MLS" style="text;html=1;align=center;verticalAlign=middle;resizable=0;points=[];autosize=1;strokeColor=none;fillColor=none;rotation=0;" vertex="1" parent="1">
          <mxGeometry x="-300" y="465" width="170" height="40" as="geometry" />
        </mxCell>
        <mxCell id="Y_fE8vQvsGZrMahcz89O-41" value="" style="endArrow=none;html=1;rounded=0;" edge="1" parent="1" target="Y_fE8vQvsGZrMahcz89O-32">
          <mxGeometry width="50" height="50" relative="1" as="geometry">
            <mxPoint x="-583" y="220" as="sourcePoint" />
            <mxPoint x="-586.71" y="150" as="targetPoint" />
            <Array as="points">
              <mxPoint x="-587" y="190" />
            </Array>
          </mxGeometry>
        </mxCell>
        <mxCell id="Y_fE8vQvsGZrMahcz89O-32" value="PC DEVICE 01" style="text;html=1;align=center;verticalAlign=middle;resizable=0;points=[];autosize=1;strokeColor=none;fillColor=none;" vertex="1" parent="1">
          <mxGeometry x="-635" y="140" width="100" height="30" as="geometry" />
        </mxCell>
        <mxCell id="Y_fE8vQvsGZrMahcz89O-42" value="" style="endArrow=none;html=1;rounded=0;" edge="1" parent="1" source="Y_fE8vQvsGZrMahcz89O-7" target="Y_fE8vQvsGZrMahcz89O-33">
          <mxGeometry width="50" height="50" relative="1" as="geometry">
            <mxPoint x="-307" y="220" as="sourcePoint" />
            <mxPoint x="-310.71" y="150" as="targetPoint" />
          </mxGeometry>
        </mxCell>
        <mxCell id="Y_fE8vQvsGZrMahcz89O-33" value="SERVER 01" style="text;html=1;align=center;verticalAlign=middle;resizable=0;points=[];autosize=1;strokeColor=none;fillColor=none;" vertex="1" parent="1">
          <mxGeometry x="-355" y="150" width="90" height="30" as="geometry" />
        </mxCell>
        <mxCell id="Y_fE8vQvsGZrMahcz89O-43" value="" style="endArrow=none;html=1;rounded=0;" edge="1" parent="1" target="Y_fE8vQvsGZrMahcz89O-37">
          <mxGeometry width="50" height="50" relative="1" as="geometry">
            <mxPoint x="-36.29000000000002" y="230" as="sourcePoint" />
            <mxPoint x="-40" y="160" as="targetPoint" />
          </mxGeometry>
        </mxCell>
        <mxCell id="Y_fE8vQvsGZrMahcz89O-37" value="PC DEVICE 02" style="text;html=1;align=center;verticalAlign=middle;resizable=0;points=[];autosize=1;strokeColor=none;fillColor=none;" vertex="1" parent="1">
          <mxGeometry x="-80.22000000000003" y="160" width="100" height="30" as="geometry" />
        </mxCell>
        <mxCell id="Y_fE8vQvsGZrMahcz89O-44" value="" style="endArrow=none;dashed=1;html=1;rounded=0;" edge="1" parent="1">
          <mxGeometry width="50" height="50" relative="1" as="geometry">
            <mxPoint x="-140" y="450" as="sourcePoint" />
            <mxPoint x="-60" y="280" as="targetPoint" />
          </mxGeometry>
        </mxCell>
        <mxCell id="Y_fE8vQvsGZrMahcz89O-38" value="SWITCH" style="text;html=1;align=center;verticalAlign=middle;resizable=0;points=[];autosize=1;strokeColor=none;fillColor=none;" vertex="1" parent="1">
          <mxGeometry x="-120.00000000000003" y="260" width="70" height="30" as="geometry" />
        </mxCell>
        <mxCell id="Y_fE8vQvsGZrMahcz89O-45" value="" style="endArrow=none;dashed=1;html=1;rounded=0;entryX=0.433;entryY=0.816;entryDx=0;entryDy=0;exitX=0;exitY=0.5;exitDx=0;exitDy=0;exitPerimeter=0;entryPerimeter=0;" edge="1" parent="1" source="Y_fE8vQvsGZrMahcz89O-52" target="Y_fE8vQvsGZrMahcz89O-34">
          <mxGeometry width="50" height="50" relative="1" as="geometry">
            <mxPoint x="-302.64" y="440" as="sourcePoint" />
            <mxPoint x="-307.0699999999998" y="260" as="targetPoint" />
            <Array as="points">
              <mxPoint x="-140" y="450" />
            </Array>
          </mxGeometry>
        </mxCell>
        <mxCell id="Y_fE8vQvsGZrMahcz89O-34" value="SWITCH" style="text;html=1;align=center;verticalAlign=middle;resizable=0;points=[];autosize=1;strokeColor=none;fillColor=none;" vertex="1" parent="1">
          <mxGeometry x="-370" y="270" width="70" height="30" as="geometry" />
        </mxCell>
        <mxCell id="Y_fE8vQvsGZrMahcz89O-53" value="" style="endArrow=none;dashed=1;html=1;rounded=0;exitX=0;exitY=0.5;exitDx=0;exitDy=0;exitPerimeter=0;entryX=0.25;entryY=1;entryDx=0;entryDy=0;" edge="1" parent="1" source="Y_fE8vQvsGZrMahcz89O-52" target="Y_fE8vQvsGZrMahcz89O-7">
          <mxGeometry width="50" height="50" relative="1" as="geometry">
            <mxPoint x="-530" y="485" as="sourcePoint" />
            <mxPoint x="-290" y="310" as="targetPoint" />
            <Array as="points" />
          </mxGeometry>
        </mxCell>
        <mxCell id="Y_fE8vQvsGZrMahcz89O-54" value="" style="endArrow=none;dashed=1;html=1;rounded=0;entryX=0.715;entryY=0.876;entryDx=0;entryDy=0;entryPerimeter=0;" edge="1" parent="1" source="Y_fE8vQvsGZrMahcz89O-52" target="Y_fE8vQvsGZrMahcz89O-38">
          <mxGeometry width="50" height="50" relative="1" as="geometry">
            <mxPoint x="-130" y="460" as="sourcePoint" />
            <mxPoint x="-40" y="300" as="targetPoint" />
          </mxGeometry>
        </mxCell>
        <mxCell id="Y_fE8vQvsGZrMahcz89O-55" value="" style="endArrow=none;dashed=1;html=1;rounded=0;" edge="1" parent="1" target="Y_fE8vQvsGZrMahcz89O-35">
          <mxGeometry width="50" height="50" relative="1" as="geometry">
            <mxPoint x="-140" y="455" as="sourcePoint" />
            <mxPoint x="-534" y="275" as="targetPoint" />
            <Array as="points" />
          </mxGeometry>
        </mxCell>
        <mxCell id="Y_fE8vQvsGZrMahcz89O-66" value="" style="rounded=0;whiteSpace=wrap;html=1;" vertex="1" parent="1">
          <mxGeometry x="-679.85" y="760" width="750" height="305" as="geometry" />
        </mxCell>
        <mxCell id="Y_fE8vQvsGZrMahcz89O-26" value="" style="image;html=1;image=img/lib/clip_art/networking/Wireless_Router_N_128x128.png" vertex="1" parent="1">
          <mxGeometry x="-520" y="910" width="130" height="100" as="geometry" />
        </mxCell>
        <mxCell id="Y_fE8vQvsGZrMahcz89O-40" value="ROUTER" style="text;html=1;align=center;verticalAlign=middle;resizable=0;points=[];autosize=1;strokeColor=none;fillColor=none;" vertex="1" parent="1">
          <mxGeometry x="-545.58" y="1000" width="70" height="30" as="geometry" />
        </mxCell>
        <mxCell id="Y_fE8vQvsGZrMahcz89O-67" style="edgeStyle=orthogonalEdgeStyle;rounded=0;orthogonalLoop=1;jettySize=auto;html=1;exitX=0.5;exitY=1;exitDx=0;exitDy=0;entryX=0.738;entryY=0.333;entryDx=0;entryDy=0;entryPerimeter=0;fontFamily=Helvetica;fontSize=12;fontColor=default;autosize=1;resizable=0;" edge="1" parent="1" source="Y_fE8vQvsGZrMahcz89O-26" target="Y_fE8vQvsGZrMahcz89O-40">
          <mxGeometry relative="1" as="geometry" />
        </mxCell>
        <mxCell id="Y_fE8vQvsGZrMahcz89O-68" value="MULTI-LAYERED SWITCH&lt;br&gt;MLS" style="text;html=1;align=center;verticalAlign=middle;resizable=0;points=[];autosize=1;strokeColor=none;fillColor=none;rotation=0;" vertex="1" parent="1">
          <mxGeometry x="-650" y="510" width="170" height="40" as="geometry" />
        </mxCell>
        <mxCell id="Y_fE8vQvsGZrMahcz89O-69" value="" style="shape=mxgraph.cisco.switches.multilayer_remote_switch;html=1;pointerEvents=1;dashed=0;fillColor=#036897;strokeColor=#ffffff;strokeWidth=2;verticalLabelPosition=bottom;verticalAlign=top;align=center;outlineConnect=0;" vertex="1" parent="1">
          <mxGeometry x="-139.07000000000005" y="790" width="58.85" height="60" as="geometry" />
        </mxCell>
        <mxCell id="Y_fE8vQvsGZrMahcz89O-70" value="" style="endArrow=none;dashed=1;html=1;rounded=0;exitX=0;exitY=0.5;exitDx=0;exitDy=0;exitPerimeter=0;entryX=0.25;entryY=1;entryDx=0;entryDy=0;" edge="1" parent="1" target="Y_fE8vQvsGZrMahcz89O-52">
          <mxGeometry width="50" height="50" relative="1" as="geometry">
            <mxPoint x="-530" y="485" as="sourcePoint" />
            <mxPoint x="-325" y="290" as="targetPoint" />
            <Array as="points" />
          </mxGeometry>
        </mxCell>
        <mxCell id="Y_fE8vQvsGZrMahcz89O-52" value="" style="shape=mxgraph.cisco.switches.multilayer_remote_switch;html=1;pointerEvents=1;dashed=0;fillColor=#036897;strokeColor=#ffffff;strokeWidth=2;verticalLabelPosition=bottom;verticalAlign=top;align=center;outlineConnect=0;" vertex="1" parent="1">
          <mxGeometry x="-564.4200000000001" y="445" width="58.85" height="60" as="geometry" />
        </mxCell>
        <mxCell id="Y_fE8vQvsGZrMahcz89O-71" value="" style="shape=mxgraph.cisco.switches.multilayer_remote_switch;html=1;pointerEvents=1;dashed=0;fillColor=#036897;strokeColor=#ffffff;strokeWidth=2;verticalLabelPosition=bottom;verticalAlign=top;align=center;outlineConnect=0;" vertex="1" parent="1">
          <mxGeometry x="-535.58" y="790" width="58.85" height="60" as="geometry" />
        </mxCell>
        <mxCell id="Y_fE8vQvsGZrMahcz89O-56" value="" style="endArrow=none;dashed=1;html=1;rounded=0;entryX=0.374;entryY=0.825;entryDx=0;entryDy=0;entryPerimeter=0;" edge="1" parent="1" source="Y_fE8vQvsGZrMahcz89O-71">
          <mxGeometry width="50" height="50" relative="1" as="geometry">
            <mxPoint x="-467" y="680" as="sourcePoint" />
            <mxPoint x="-515.1199999999999" y="519.5" as="targetPoint" />
            <Array as="points" />
          </mxGeometry>
        </mxCell>
        <mxCell id="Y_fE8vQvsGZrMahcz89O-27" value="" style="endArrow=none;dashed=1;html=1;rounded=0;entryX=0.5;entryY=1;entryDx=0;entryDy=0;entryPerimeter=0;" edge="1" parent="1" source="Y_fE8vQvsGZrMahcz89O-69" target="Y_fE8vQvsGZrMahcz89O-25">
          <mxGeometry width="50" height="50" relative="1" as="geometry">
            <mxPoint x="-280" y="650" as="sourcePoint" />
            <mxPoint x="-330" y="500" as="targetPoint" />
          </mxGeometry>
        </mxCell>
        <mxCell id="Y_fE8vQvsGZrMahcz89O-72" value="" style="endArrow=none;dashed=1;html=1;rounded=0;" edge="1" parent="1" target="Y_fE8vQvsGZrMahcz89O-52">
          <mxGeometry width="50" height="50" relative="1" as="geometry">
            <mxPoint x="-101" y="800" as="sourcePoint" />
            <mxPoint x="-111" y="500" as="targetPoint" />
          </mxGeometry>
        </mxCell>
        <mxCell id="Y_fE8vQvsGZrMahcz89O-73" value="" style="endArrow=none;dashed=1;html=1;rounded=0;entryX=0.5;entryY=1;entryDx=0;entryDy=0;entryPerimeter=0;exitX=1;exitY=0.5;exitDx=0;exitDy=0;exitPerimeter=0;" edge="1" parent="1" source="Y_fE8vQvsGZrMahcz89O-71">
          <mxGeometry width="50" height="50" relative="1" as="geometry">
            <mxPoint x="-101" y="800" as="sourcePoint" />
            <mxPoint x="-111" y="500" as="targetPoint" />
          </mxGeometry>
        </mxCell>
        <mxCell id="Y_fE8vQvsGZrMahcz89O-74" value="" style="endArrow=none;dashed=1;html=1;rounded=0;entryX=0.303;entryY=0.169;entryDx=0;entryDy=0;entryPerimeter=0;" edge="1" parent="1" target="Y_fE8vQvsGZrMahcz89O-69">
          <mxGeometry width="50" height="50" relative="1" as="geometry">
            <mxPoint x="-497" y="800" as="sourcePoint" />
            <mxPoint x="-505.1199999999999" y="529.5" as="targetPoint" />
            <Array as="points" />
          </mxGeometry>
        </mxCell>
        <mxCell id="Y_fE8vQvsGZrMahcz89O-75" value="" style="endArrow=none;dashed=1;html=1;rounded=0;entryX=0.303;entryY=0.169;entryDx=0;entryDy=0;entryPerimeter=0;exitX=0.615;exitY=0.7;exitDx=0;exitDy=0;exitPerimeter=0;" edge="1" parent="1" source="Y_fE8vQvsGZrMahcz89O-26">
          <mxGeometry width="50" height="50" relative="1" as="geometry">
            <mxPoint x="-487" y="810" as="sourcePoint" />
            <mxPoint x="-111" y="810" as="targetPoint" />
            <Array as="points" />
          </mxGeometry>
        </mxCell>
        <mxCell id="Y_fE8vQvsGZrMahcz89O-78" value="&lt;span style=&quot;background-color: rgb(251, 251, 251);&quot;&gt;MULTI-LAYERED SWITCH&lt;/span&gt;&lt;br style=&quot;background-color: rgb(251, 251, 251);&quot;&gt;&lt;span style=&quot;background-color: rgb(251, 251, 251);&quot;&gt;MLS&lt;/span&gt;" style="edgeLabel;html=1;align=center;verticalAlign=middle;resizable=0;points=[];fontFamily=Helvetica;fontSize=12;fontColor=default;autosize=1;fillColor=none;gradientColor=none;" vertex="1" connectable="0" parent="Y_fE8vQvsGZrMahcz89O-75">
          <mxGeometry x="0.7168" y="2" width="170" height="40" relative="1" as="geometry">
            <mxPoint x="-122" y="8" as="offset" />
          </mxGeometry>
        </mxCell>
        <mxCell id="Y_fE8vQvsGZrMahcz89O-76" value="" style="endArrow=none;dashed=1;html=1;rounded=0;entryX=0.5;entryY=1;entryDx=0;entryDy=0;entryPerimeter=0;exitX=0.615;exitY=0.7;exitDx=0;exitDy=0;exitPerimeter=0;" edge="1" parent="1" target="Y_fE8vQvsGZrMahcz89O-71">
          <mxGeometry width="50" height="50" relative="1" as="geometry">
            <mxPoint x="-430" y="990" as="sourcePoint" />
            <mxPoint x="-101" y="820" as="targetPoint" />
            <Array as="points" />
          </mxGeometry>
        </mxCell>
        <mxCell id="Y_fE8vQvsGZrMahcz89O-77" value="&lt;span style=&quot;background-color: rgb(251, 251, 251);&quot;&gt;MULTI-LAYERED SWITCH&lt;/span&gt;&lt;br style=&quot;background-color: rgb(251, 251, 251);&quot;&gt;&lt;span style=&quot;background-color: rgb(251, 251, 251);&quot;&gt;MLS&lt;/span&gt;" style="edgeLabel;html=1;align=center;verticalAlign=middle;resizable=0;points=[];fontFamily=Helvetica;fontSize=12;fontColor=default;autosize=1;fillColor=none;gradientColor=none;" vertex="1" connectable="0" parent="Y_fE8vQvsGZrMahcz89O-76">
          <mxGeometry x="0.6384" y="4" width="170" height="40" relative="1" as="geometry">
            <mxPoint x="-85" y="-20" as="offset" />
          </mxGeometry>
        </mxCell>
      </root>
    </mxGraphModel>
  </diagram>
</mxfile>
